<svg width="30" height="39" viewBox="0 0 30 39" fill="none" xmlns="http://www.w3.org/2000/svg">
<path d="M14.5103 16.8641L9.20892 18.3052C7.21243 18.8399 5.39642 19.6618 3.76652 20.7707C2.54832 21.6207 1.60648 22.7353 0.952259 24.1088C0.427758 25.2009 0.123208 26.4111 0.0160522 27.7171L3.07282 26.6926C3.67628 26.4562 4.21206 26.0678 4.61813 25.5611L7.92869 21.4462C8.20504 21.1029 8.71262 21.0297 9.05665 21.2886L7.32523 23.3545C7.00376 23.7373 6.85149 24.2158 6.90225 24.7055C6.94736 25.1952 7.18987 25.6343 7.57902 25.9439C7.96817 26.2479 8.45883 26.3886 8.94385 26.3323C9.42323 26.2817 9.89698 26.0284 10.2015 25.6625L14.0479 21.086C14.1437 20.9621 14.1889 20.8101 14.1719 20.6582C14.1607 20.5005 14.0817 20.3598 13.9464 20.2529C13.6982 20.0671 13.3373 20.1009 13.1342 20.3429L9.29352 24.9138C9.17508 25.0601 9.00589 25.1502 8.81414 25.1671C8.62802 25.1896 8.44755 25.139 8.30655 25.0264C8.1712 24.9194 8.0866 24.7618 8.06968 24.5929C8.05276 24.4184 8.10916 24.2495 8.22196 24.1088L12.0288 19.5717C12.0627 19.5323 12.0965 19.4986 12.1811 19.4254C12.3559 19.2227 12.6323 19.1383 12.8917 19.1833L18.994 20.3204C20.184 20.5399 21.4247 20.4837 22.5978 20.1515C22.5978 20.1515 22.5978 20.1515 22.6034 20.1515L29.828 18.187V12.6817C29.828 9.91214 29.4276 7.77306 28.6211 6.27008C27.8146 4.7671 26.3257 3.49492 24.1544 2.45916C21.9831 1.4234 19.4621 0.905518 16.5914 0.905518C14.0591 0.905518 11.4705 1.35022 8.8367 2.23399C6.20291 3.1234 3.81728 4.46876 1.69107 6.28134V16.0029C3.78344 14.0608 5.97168 12.6479 8.2558 11.7529C10.5399 10.8578 12.7 10.4075 14.7359 10.4075C16.2136 10.4075 17.4261 10.7847 18.3736 11.5446C19.0955 12.1356 19.4564 12.8168 19.4564 13.5936C19.4564 14.2578 19.2139 14.8151 18.7233 15.2542C18.2213 15.6989 16.8226 16.2393 14.5103 16.8641Z" fill="#1B1B1B"/>
<path d="M23.2069 26.5406C22.8008 26.6476 22.2087 26.8558 21.6165 27.0641C21.3007 27.1767 20.9792 27.2893 20.6577 27.3962C20.6521 27.3962 20.6464 27.4019 20.6408 27.4019C19.9471 27.6327 19.6144 27.6383 18.3341 26.8333L15.909 25.0827C15.6439 24.9025 15.2774 24.9588 15.1082 25.1952C15.0066 25.3191 14.9615 25.4767 14.9841 25.6456C15.0066 25.8032 15.0912 25.9439 15.221 26.0396L18.774 28.6009C18.8812 28.6797 18.9601 28.781 18.9827 28.8823C19.0222 29.0399 18.9883 29.2088 18.8812 29.3495C18.8135 29.4396 18.7176 29.5072 18.5992 29.5522C18.4751 29.5916 18.3341 29.5634 18.21 29.4734L14.4539 26.777C14.1945 26.5856 13.8279 26.6419 13.6305 26.8952C13.5347 27.0191 13.4895 27.1823 13.5177 27.3399C13.5403 27.4976 13.6249 27.6327 13.7546 27.7283L17.4769 30.3966C17.6461 30.5148 17.725 30.7287 17.663 30.9032C17.6461 30.9595 17.6179 31.0101 17.5784 31.0552C17.522 31.134 17.4487 31.1903 17.3641 31.2297C17.2287 31.2916 17.0595 31.2691 16.9185 31.1678L13.2245 28.5108C12.9707 28.3194 12.5984 28.3757 12.4067 28.629C12.3108 28.7585 12.2657 28.9217 12.2939 29.0793C12.3165 29.2313 12.4011 29.3664 12.5308 29.4621L16.1797 32.0909C16.3828 32.2373 16.4448 32.4962 16.2982 32.7326C16.2248 32.8227 16.1346 32.8959 16.0162 32.9353C16.0105 32.9353 16.0105 32.9353 16.0049 32.9409C15.8808 32.9803 15.7342 32.9522 15.6101 32.8677L11.854 30.177C11.6002 29.9856 11.2393 30.0363 11.0362 30.2952C10.9403 30.4247 10.8952 30.5879 10.9234 30.7456C10.946 30.8976 11.0362 31.0383 11.1603 31.1283L14.2565 33.3406C14.3468 33.4081 14.4088 33.5095 14.4257 33.6221C14.437 33.7346 14.4032 33.8416 14.3299 33.9317C14.2001 34.0836 13.9407 34.1005 13.7602 33.9711L11.8878 32.637C10.5004 31.5899 8.8367 31.376 6.91353 32.0121L1.35269 33.8754C2.1761 35.2207 3.31534 36.279 4.78733 37.0333C6.33263 37.827 8.01893 38.2267 9.85187 38.2267C12.277 38.2267 14.4088 37.5793 16.2474 36.2846C18.086 34.9899 19.3944 33.1999 20.1727 30.9088L19.7836 37.4161H29.828V24.6942L23.2069 26.5406Z" fill="#1B1B1B"/>
</svg>
